HIERARCHY
ROOT Hips
{
	OFFSET 0.00000 0.00000 0.00000
	CHANNELS 6 Xposition Yposition Zposition Zrotation Yrotation Xrotation 
	JOINT LHipJoint
	{
		OFFSET 0 0 0
		CHANNELS 3 Zrotation Yrotation Xrotation
		JOINT LeftUpLeg
		{
			OFFSET 1.57338 -1.94743 0.52196
			CHANNELS 3 Zrotation Yrotation Xrotation
			JOINT LeftLeg
			{
				OFFSET 2.60333 -7.15259 0.00000
				CHANNELS 3 Zrotation Yrotation Xrotation
				JOINT LeftFoot
				{
					OFFSET 2.77855 -7.63400 0.00000
					CHANNELS 3 Zrotation Yrotation Xrotation
					JOINT LeftToeBase
					{
						OFFSET 0.19847 -0.54529 2.28466
						CHANNELS 3 Zrotation Yrotation Xrotation
						End Site
						{
							OFFSET 0.00000 -0.00000 1.17993
						}
					}
				}
			}
		}
	}
	JOINT RHipJoint
	{
		OFFSET 0 0 0
		CHANNELS 3 Zrotation Yrotation Xrotation
		JOINT RightUpLeg
		{
			OFFSET -1.61527 -1.94743 0.52196
			CHANNELS 3 Zrotation Yrotation Xrotation
			JOINT RightLeg
			{
				OFFSET -2.53829 -6.97390 0.00000
				CHANNELS 3 Zrotation Yrotation Xrotation
				JOINT RightFoot
				{
					OFFSET -2.80762 -7.71387 0.00000
					CHANNELS 3 Zrotation Yrotation Xrotation
					JOINT RightToeBase
					{
						OFFSET -0.30536 -0.83898 2.28801
						CHANNELS 3 Zrotation Yrotation Xrotation
						End Site
						{
							OFFSET -0.00000 -0.00000 1.21323
						}
					}
				}
			}
		}
	}
	JOINT LowerBack
	{
		OFFSET 0 0 0
		CHANNELS 3 Zrotation Yrotation Xrotation
		JOINT Spine
		{
			OFFSET -0.04381 1.99497 -0.19778
			CHANNELS 3 Zrotation Yrotation Xrotation
			JOINT Spine1
			{
				OFFSET -0.01959 2.01295 -0.04372
				CHANNELS 3 Zrotation Yrotation Xrotation
				JOINT Neck
				{
					OFFSET 0 0 0
					CHANNELS 3 Zrotation Yrotation Xrotation
					JOINT Neck1
					{
						OFFSET -0.05459 1.76913 0.09708
						CHANNELS 3 Zrotation Yrotation Xrotation
						JOINT Head
						{
							OFFSET 0.09461 1.77368 -0.11172
							CHANNELS 3 Zrotation Yrotation Xrotation
							End Site
							{
								OFFSET 0.03812 1.78157 -0.04834
							}
						}
					}
				}
				JOINT LeftShoulder
				{
					OFFSET 0 0 0
					CHANNELS 3 Zrotation Yrotation Xrotation
					JOINT LeftArm
					{
						OFFSET 3.50922 1.24034 -0.28866
						CHANNELS 3 Zrotation Yrotation Xrotation
						JOINT LeftForeArm
						{
							OFFSET 5.40188 -0.00000 0.00000
							CHANNELS 3 Zrotation Yrotation Xrotation
							JOINT LeftHand
							{
								OFFSET 3.68559 -0.00000 0.00000
								CHANNELS 3 Zrotation Yrotation Xrotation
								JOINT LeftFingerBase
								{
									OFFSET 0 0 0
									CHANNELS 3 Zrotation Yrotation Xrotation
									JOINT LeftHandIndex1
									{
										OFFSET 0.61753 -0.00000 0.00000
										CHANNELS 3 Zrotation Yrotation Xrotation
										End Site
										{
											OFFSET 0.49787 -0.00000 0.00000
										}
									}
								}
								JOINT LThumb
								{
									OFFSET 0 0 0
									CHANNELS 3 Zrotation Yrotation Xrotation
									End Site
									{
										OFFSET 0.50547 -0.00000 0.50547
									}
								}
							}
						}
					}
				}
				JOINT RightShoulder
				{
					OFFSET 0 0 0
					CHANNELS 3 Zrotation Yrotation Xrotation
					JOINT RightArm
					{
						OFFSET -2.95373 1.39649 -0.27346
						CHANNELS 3 Zrotation Yrotation Xrotation
						JOINT RightForeArm
						{
							OFFSET -6.10670 -0.00000 -0.00000
							CHANNELS 3 Zrotation Yrotation Xrotation
							JOINT RightHand
							{
								OFFSET -3.63052 -0.00000 0.00000
								CHANNELS 3 Zrotation Yrotation Xrotation
								JOINT RightFingerBase
								{
									OFFSET 0 0 0
									CHANNELS 3 Zrotation Yrotation Xrotation
									JOINT RightHandIndex1
									{
										OFFSET -0.58385 -0.00000 0.00000
										CHANNELS 3 Zrotation Yrotation Xrotation
										End Site
										{
											OFFSET -0.47071 -0.00000 0.00000
										}
									}
								}
								JOINT RThumb
								{
									OFFSET 0 0 0
									CHANNELS 3 Zrotation Yrotation Xrotation
									End Site
									{
										OFFSET -0.47790 -0.00000 0.47790
									}
								}
							}
						}
					}
				}
			}
		}
	}
}
MOTION
Frames: 8
Frame Time: .0083333
0.1899 16.3812 -2.5432 0 0 0 0 0 0 -21 0 0 0 0 0 0 0 0 0 0 0 0 0 0 21 0 0 0 0 0 0 0 0 0 0 0 0 0 0 0 0 0 0 0 0 0 0 -16 0 0 21 0 0 11 0 0 0 -8 0 0 0 0 0 0 0 0 0 0 0 0 0 0 0 0 0 0 0 0 8 0 0 0 0 0 0 0 0 0 0 0 0 0 0 0 0 0
0.1899 16.3812 -2.5432 1.9831 -6.1819 -10.9896 0.0000 0.0000 0.0000 -7.1204 -8.7666 -5.9064 9.4219 17.0717 57.5379 1.9456 -11.4562 -25.1418 2.2277 -9.3250 -26.8175 0.0000 0.0000 0.0000 7.1883 23.9415 3.0136 -7.6480 -15.8542 51.2847 -3.2349 0.3256 -34.0416 -1.9992 8.8645 -25.3724 -2.7374 -0.8259 13.7264 -0.1427 -1.5066 2.4554 1.6641 -0.7031 -5.0344 -6.1360 -0.6152 -8.2804 7.1565 -0.6811 6.1326 3.1416 -0.1683 3.2176 0.0000 0.0000 0.0000 12.3209 -31.8502 -40.3952 114.9666 -57.5085 -81.4409 -0.0000 0.0000 -24.3264 37.0344 10.5999 7.9016 -7.1250 0.0000 -0.0000 9.0838 42.9907 -0.4544 0.0000 0.0000 0.0000 -20.9725 24.0619 -44.4396 -117.6151 56.9127 -83.6675 0.0000 0.0000 5.1987 -44.6232 6.5901 -6.4622 7.1250 -0.0000 -0.0000 -12.8278 -20.8537 -7.6108
0.2242 16.4512 -2.5197 2.3181 -6.3628 -10.9560 0.0000 0.0000 0.0000 -7.7628 -8.2850 -5.2698 9.0390 16.8328 56.2250 1.9568 -11.0075 -25.1776 2.1959 -9.2627 -26.6205 0.0000 0.0000 0.0000 6.6048 23.7708 3.3991 -7.3382 -15.6102 50.1419 -3.1020 0.6606 -33.2268 -1.9422 8.7446 -24.9995 -2.9463 -0.7234 13.2970 -0.0725 -1.3857 2.2721 1.8278 -0.6386 -4.9905 -6.6610 -0.4271 -9.2947 7.6207 -0.4264 7.8201 3.4026 -0.0104 3.8780 0.0000 0.0000 0.0000 10.2049 -31.9231 -37.3788 115.0359 -57.4938 -81.4993 -0.0000 0.0000 -23.9432 37.0840 10.6268 7.9352 -7.1250 0.0000 -0.0000 9.1313 43.0300 -0.4479 0.0000 0.0000 0.0000 -20.1161 24.4510 -42.8931 -116.5204 57.1680 -82.7490 0.0000 0.0000 5.3921 -44.2763 6.2870 -6.0948 7.1250 -0.0000 -0.0000 -12.6462 -21.3115 -7.3631
0.2599 16.5447 -2.4957 2.4852 -6.6294 -10.7573 0.0000 0.0000 0.0000 -8.2195 -7.6879 -4.8128 8.6457 16.5742 54.8566 1.9467 -10.2541 -25.0665 2.1998 -9.2705 -26.6452 0.0000 0.0000 0.0000 6.2091 23.6937 3.6674 -7.0118 -15.3418 48.9191 -2.8866 0.5431 -32.0647 -2.0066 8.8798 -25.4201 -2.8929 -0.6375 12.7139 -0.0138 -1.2454 2.0436 1.8264 -0.5687 -4.9169 -6.6251 -0.2980 -9.6371 7.4989 -0.2647 8.6658 3.3788 0.0722 4.1791 0.0000 -0.0000 0.0000 7.9638 -31.7902 -34.2412 114.7671 -57.5503 -81.2726 -0.0000 0.0000 -23.7739 36.8058 10.4659 7.7403 -7.1250 0.0000 -0.0000 8.8653 42.7983 -0.4858 0.0000 -0.0000 0.0000 -18.8854 24.8163 -41.2013 -115.2590 57.4463 -81.6874 0.0000 0.0000 5.5470 -43.8019 5.8949 -5.6253 7.1250 -0.0000 -0.0000 -12.3894 -21.9007 -7.0362
0.2970 16.6634 -2.4692 2.3204 -7.0697 -10.4261 0.0000 0.0000 0.0000 -8.2485 -6.9650 -4.4830 8.2493 16.2996 53.4557 1.8752 -9.6817 -24.5753 2.1217 -9.1151 -26.1561 0.0000 0.0000 0.0000 6.2519 23.8613 3.8421 -6.6881 -15.0635 47.6846 -2.6366 0.3665 -30.6738 -2.1037 9.0788 -26.0421 -2.4663 -0.5467 12.0124 0.1379 -1.0420 1.8239 1.7012 -0.4744 -4.7754 -6.5030 -0.1820 -9.8089 7.2890 -0.1161 9.1726 3.3089 0.1415 4.3511 0.0000 -0.0000 0.0000 5.6225 -31.4554 -31.0954 114.1991 -57.6673 -80.7929 -0.0000 0.0000 -23.6854 36.6438 10.2102 7.5114 -7.1250 0.0000 -0.0000 8.7034 42.4671 -0.5484 0.0000 -0.0000 0.0000 -17.4782 25.1552 -39.5530 -113.7540 57.7567 -80.4167 0.0000 0.0000 5.7996 -43.4162 5.5157 -5.1966 7.1250 -0.0000 -0.0000 -12.1882 -22.4545 -6.7589
0.3298 16.8021 -2.4442 1.8508 -7.5961 -10.0113 0.0000 0.0000 0.0000 -7.8660 -6.2238 -4.2547 7.8534 16.0104 52.0329 1.7421 -9.1707 -23.6631 2.0205 -8.9086 -25.5098 0.0000 0.0000 0.0000 6.7373 24.2436 4.0330 -6.3668 -14.7746 46.4365 -2.3569 0.2013 -29.0305 -2.0772 9.0250 -25.8736 -1.7912 -0.4594 11.3992 0.3879 -0.8160 1.5435 1.5400 -0.3704 -4.7459 -6.3975 -0.0920 -10.0931 7.1102 0.0003 9.7661 3.2519 0.1975 4.5717 0.0000 -0.0000 0.0000 3.0022 -30.8877 -27.8567 113.4849 -57.8098 -80.1889 -0.0000 0.0000 -23.5480 36.5224 10.0737 7.3807 -7.1250 0.0000 -0.0000 8.5853 42.2864 -0.5795 0.0000 -0.0000 0.0000 -15.8424 25.4197 -37.7384 -111.9431 58.1001 -78.8821 0.0000 0.0000 5.9562 -43.2572 5.0862 -4.7685 7.1250 -0.0000 -0.0000 -12.1543 -23.0454 -6.5707
0.3618 16.9620 -2.4191 1.4917 -7.9993 -9.6185 0.0000 0.0000 0.0000 -7.6402 -5.6075 -3.9664 7.4523 15.7012 50.5650 1.5853 -8.5097 -22.5470 2.0096 -8.8860 -25.4394 0.0000 0.0000 0.0000 7.1581 24.6507 4.3264 -6.0524 -14.4790 45.1918 -2.0697 -0.1330 -27.2936 -2.0870 9.0449 -25.9359 -1.2149 -0.3785 10.9147 0.5804 -0.6225 1.2180 1.3833 -0.2806 -4.8291 -6.1370 -0.0168 -10.5036 6.8071 0.0920 10.4529 3.1312 0.2409 4.8456 -0.0000 -0.0000 0.0000 0.2573 -30.1712 -24.6112 112.4004 -58.0164 -79.2701 -0.0000 0.0000 -23.4216 36.1594 10.3440 7.4757 -7.1250 0.0000 -0.0000 8.2642 42.5698 -0.4993 -0.0000 -0.0000 0.0000 -13.8983 25.4539 -35.6853 -110.0089 58.4318 -77.2370 0.0000 0.0000 5.8889 -43.1072 4.7553 -4.4370 7.1250 -0.0000 -0.0000 -12.1072 -23.5020 -6.4139
0.3944 17.1312 -2.3973 1.3614 -8.3289 -9.2203 0.0000 0.0000 0.0000 -7.7170 -5.1698 -3.6141 7.0393 15.3649 49.0227 1.4131 -7.6796 -21.2607 2.0639 -8.9979 -25.7889 0.0000 0.0000 0.0000 7.3405 25.1145 4.5884 -5.7473 -14.1789 43.9590 -1.7684 -0.8521 -25.4719 -2.2144 9.2992 -26.7357 -0.9050 -0.3030 10.3578 0.7447 -0.4721 0.9530 1.3539 -0.2095 -4.8018 -5.9215 0.1483 -10.8392 6.5373 0.3181 10.8168 3.0338 0.3483 5.0001 -0.0000 -0.0000 0.0000 -2.5522 -29.3268 -21.5877 110.9263 -58.2789 -78.0180 -0.0000 0.0000 -23.5982 35.4358 11.1940 7.8653 -7.1250 0.0000 -0.0000 7.6223 43.5012 -0.2837 -0.0000 -0.0000 0.0000 -11.8979 25.3854 -33.6734 -107.9318 58.7495 -75.4641 0.0000 0.0000 5.7400 -42.9045 4.4739 -4.1466 7.1250 -0.0000 -0.0000 -12.0121 -23.8962 -6.2495
